<?xml version="1.0" standalone="no"?>
<!DOCTYPE svg PUBLIC "-//W3C//DTD SVG 20010904//EN"
 "http://www.w3.org/TR/2001/REC-SVG-20010904/DTD/svg10.dtd">
<svg version="1.0" xmlns="http://www.w3.org/2000/svg"
 width="101.000000pt" height="59.000000pt" viewBox="0 0 101.000000 59.000000"
 preserveAspectRatio="xMidYMid meet">

<g transform="translate(0.000000,59.000000) scale(0.100000,-0.100000)"
fill="#000000" stroke="none">
<path d="M80 445 l0 -55 70 0 70 0 0 -115 0 -115 60 0 60 0 0 115 0 115 75 0
75 0 0 55 0 55 -205 0 -205 0 0 -55z"/>
<path d="M510 331 l0 -171 160 0 c183 0 219 9 239 59 16 38 7 92 -19 116 -15
13 -17 22 -10 36 17 31 12 84 -11 105 -19 17 -41 19 -190 22 l-169 3 0 -170z
m260 74 c0 -12 -14 -15 -70 -15 -56 0 -70 3 -70 15 0 12 14 15 70 15 56 0 70
-3 70 -15z m30 -130 c0 -12 -16 -15 -85 -15 -69 0 -85 3 -85 15 0 12 16 15 85
15 69 0 85 -3 85 -15z"/>
</g>
</svg>
